<?xml version="1.0" encoding="utf-8"?>
<svg version="1.1" x="0px" y="0px" viewBox="0 0 52 51.918" enable-background="new 0 0 52 52" xmlns="http://www.w3.org/2000/svg">
 <g>
  <g>
   <path d="M35.4,23.6v17.6h-20V23.6c-1.2-0.4-2.4-0.8-3.6-1.3v25.9c0,0.6,0.2,1.2,0.6,1.7c0.5,0.6,1.3,1.1,2.2,1.1h21.8    c1.5,0,2.8-1.2,2.8-2.8V22.3C37.8,22.8,36.6,23.2,35.4,23.6z M28.9,47.1h-7c-0.5,0-1-0.5-1-1s0.5-1,1-1h7c0.6,0,1,0.5,1,1    S29.4,47.1,28.9,47.1z"/>
   <g>
    <path d="M30.8,31.3l-6,5c-0.5,0.4-1.2,0.1-1.2-0.6V25.7c0-0.7,0.8-1,1.2-0.6l6,5C31.2,30.5,31.2,31,30.8,31.3z"/>
   </g>
  </g>
  <g>
   <path d="M24.5,17.1l-12.8-4v6.3c0,0.4,0.2,0.8,0.6,0.9c9,3.8,17.7,3.6,26.1,0c0.4-0.2,0.6-0.5,0.6-0.9v-6.3l-12.8,4    C25.7,17.3,25,17.3,24.5,17.1z"/>
   <path d="M47.2,14.9c0-0.9-0.5-1.7-1.3-2V8.1c0-0.4-0.3-0.8-0.7-1L25.7,1C25.5,1,25.3,1,25.1,1L5.5,7.2c-0.4,0.1-0.7,0.5-0.7,1    c0,0.4,0.3,0.8,0.7,1l19.6,6.1c0.1,0,0.2,0,0.3,0c0.1,0,0.2,0,0.3,0l18.3-5.7v3.4c-0.6,0.3-1,0.8-1.2,1.4c-0.3,1,0.1,1.9,0.8,2.5    l-0.7,4.1c-0.1,0.5,0.3,0.9,0.7,0.9h2.8c0.5,0,0.8-0.4,0.7-0.9l-0.7-4.1C46.9,16.3,47.2,15.7,47.2,14.9z"/>
  </g>
 </g>
</svg>