<?xml version="1.0" encoding="utf-8"?>
<svg version="1.1" x="0px" y="0px" viewBox="6.6 8.668 87.341 79.477" xmlns="http://www.w3.org/2000/svg">
 <g transform="translate(0,-952.36218)">
  <path style="text-indent:0;text-transform:none;direction:ltr;block-progression:tb;baseline-shift:baseline;color:#000000;enable-background:accumulate;" d="m 63.771756,974.38278 c -0.087,0.0199 -19.059313,9.99631 -19.059313,9.99631 l -17.715787,0 c -0.52827,-0.008 -1.014212,0.47141 -1.014212,0.99964 0,0.52821 0.485942,1.00716 1.014212,0.99962 l 16.997157,0 0,19.99265 -25.027064,0 c -5.404385,0 -9.9670834,-4.5739 -9.9670834,-9.99632 0,-5.41747 4.5939534,-9.99632 9.9983284,-9.99632 l 1.999665,0 c 0.52827,0.008 1.014212,-0.47141 1.014212,-0.99962 0,-0.52823 -0.485942,-1.00718 -1.014212,-0.99964 l -1.999665,0 C 12.472057,984.3791 7,989.83537 7,996.37468 c 0,6.53462 5.440823,11.99562 11.966749,11.99562 l 3.968086,0 c 0.004,0.1066 7.123809,21.3047 7.123809,21.3047 0.129204,0.3927 0.523915,0.682 0.937343,0.6872 l 14.060149,0 c 0.639924,0 1.157253,-0.7424 0.937343,-1.3433 l -6.93634,-20.6486 5.717794,0 18.746865,9.8713 c 0.603623,0.3201 1.462697,-0.1915 1.468504,-0.8746 l 0,-41.98459 c 0.01462,-0.60487 -0.628045,-1.13209 -1.218546,-0.99963 z m -0.78112,2.65527 0,38.64195 -16.997157,-8.9341 0,-20.77363 z m 19.934167,2.31165 c -0.193255,0.0192 -7.529991,5.21683 -7.529991,5.21683 -0.424085,0.31127 -0.527347,0.97977 -0.216942,1.40445 0.310405,0.42467 0.978807,0.52937 1.404244,0.21995 l 6.998829,-4.99816 c 0.38722,-0.23737 0.571675,-0.75969 0.419367,-1.18751 -0.152308,-0.42783 -0.625361,-0.71617 -1.075507,-0.65556 z m -7.123809,16.02536 c -0.522755,0.05 -0.953142,0.57042 -0.904124,1.09316 0.04902,0.52274 0.568644,0.95407 1.091593,0.9061 l 15.997325,0 C 92.514058,997.38186 93,996.90291 93,996.37469 c 0,-0.52822 -0.485942,-1.00717 -1.014212,-0.99963 0,0 -16.122488,-0.006 -16.184794,0 z m 0.124979,10.96464 c -0.856288,0 -1.253563,1.3835 -0.531161,1.8432 l 6.99883,4.9981 c 0.425375,0.3104 1.094853,0.2061 1.405582,-0.219 0.310729,-0.4252 0.206762,-1.0945 -0.218281,-1.4054 l -6.998829,-4.9982 c -0.183794,-0.1471 -0.420845,-0.2261 -0.656141,-0.2187 z m -50.928983,2.0306 11.966749,0 c 0.0139,0.1083 6.717623,19.9926 6.717623,19.9926 l -11.966749,0 z" fill="#000000" fill-opacity="1" stroke="none" marker="none" visibility="visible" display="inline" overflow="visible"/>
 </g>
</svg>