<?xml version="1.0" encoding="utf-8"?>
<svg version="1.1" x="0px" y="0px" viewBox="0 -3.957 69 70.34" style="enable-background:new 0 0 69 69;" xmlns="http://www.w3.org/2000/svg">
 <g>
  <g>
   <path d="M 63.01 4.055 L 6 4.055 C 4.07 4.055 2.5 5.625 2.5 7.555 L 2.5 51.675 C 2.5 53.605 4.07 55.165 6 55.165 L 63.01 55.165 C 64.94 55.165 66.5 53.605 66.5 51.675 L 66.5 7.555 C 66.5 5.625 64.94 4.055 63.01 4.055 Z M 34.5 53.974 C 33.8 53.974 33.18 53.357 33.18 52.647 C 33.18 51.937 33.763 52.597 34.463 52.597 C 35.173 52.597 35.79 51.869 35.79 52.579 C 35.79 53.289 35.21 53.974 34.5 53.974 Z M 63.571 51.788 L 5.526 52.016 L 5.413 6.699 L 63.428 6.968 L 63.571 51.788 Z" style="stroke-dashoffset: -14px; fill-opacity: 0.88; stroke-miterlimit: 46; paint-order: stroke; stroke-opacity: 0.45; fill: rgba(0, 0, 0, 0.77);"/>
  </g>
  <g>
   <path d="M43.85999,64.625c-0.07996,0.19-0.26001,0.32001-0.46997,0.32001H25.62c-0.21002,0-0.39001-0.13-0.46997-0.32001    c-0.07001-0.19-0.02002-0.41003,0.13-0.54999c2.20615-2.03003,4.5714-4.92365,4.58997-7.91003h9.27002    c0.01858,2.98892,2.39208,5.88761,4.58997,7.91003C43.88,64.21497,43.92999,64.435,43.85999,64.625z" style="fill: rgba(0, 0, 0, 0.69);"/>
  </g>
  <path d="M47.40997,38.10498c-1.84998,2.31-3.48999,2.31-5.32996,0v-2.06c0.04999,0.02002,0.09998,0.04004,0.15997,0.06   c0.01001,0.01001,0.03003,0.01001,0.04004,0.02002c1.62994,0.66998,3.46997,0.65997,5.12994-0.07001V38.10498z M44.58002,35.60498   c-2.53231,0-5.57682-2.28149-6.44-6.5c-0.04999-0.22998-0.25-0.39996-0.48999-0.39996h-0.44c-0.33002,0-0.62-0.28003-0.62-0.61005   c0-0.33997,0.27997-0.62,0.62-0.62h0.19995c0.66627,0,0.4553-0.69874,0.54004-1.63c0.26001-0.95996,1.87-3.56,3.71997-3.56   c0.26001,0,0.52002,0.05005,0.78003,0.15002c1.47998,0.59998,4.51996-0.23999,6.13-1.58002c1.80856,0.40843,3,4.41009,3,5.98999   v0.13c0,0.603,0.59923,0.46833,0.70001,0.5c0.79534,0,0.83973,1.23004-0.22003,1.23004c-0.22998,0-0.44,0.16998-0.48999,0.39996   C50.90277,32.40515,48.26179,35.60498,44.58002,35.60498z M53.10999,37.78497h-4.70001v-2.25995   c2.1204-1.33689,3.49805-3.50958,4.06-5.87006c1.92217-0.44756,1.77605-2.83474,0.11005-3.14996   c-0.01001-0.16998-0.02002-0.33002-0.03003-0.47998c2.11941-5.91491-0.273-9.25843-3.89001-9.88   c-1.14996-1.27002-2.56-1.91003-4.19995-1.91003c-4.80005,0-9.89001,5.52002-10.10004,5.75   c-0.14996,0.16998-0.17999,0.41003-0.06,0.60004C34.40002,20.755,34.63,20.97498,36,21.23499   c0.70456,0.12647,0.97576,4.08707,0.90997,5.27002c-0.75,0.14001-1.31995,0.79999-1.31995,1.58997   c0,0.89001,0.72998,1.61005,1.62,1.61005H37.25c0.62,2.53998,2.02002,4.58997,3.83002,5.77997v2.29999H36.37   c-3.08997,0-5.60999,2.52002-5.60999,5.61005V47.625h27.95996v-4.22998C58.71997,40.30499,56.21002,37.78497,53.10999,37.78497z"/>
  <g>
   <g>
    <polygon points="18.16504,24.552 23.47461,21.70825 18.16504,18.87134    "/>
    <path d="M28.40997,13.83502H12.46002c-1.20001,0-2.17004,0.97998-2.17004,2.16998v11.39996     c0,1.20001,0.97003,2.18005,2.17004,2.18005h15.94995c1.20001,0,2.17004-0.98004,2.17004-2.18005V16.005     C30.58002,14.815,29.60999,13.83502,28.40997,13.83502z M24.77148,22.14771l-6.87012,3.67969     c-0.07422,0.04004-0.15527,0.05957-0.23633,0.05957c-0.08887,0-0.17773-0.02344-0.25684-0.07129     c-0.15039-0.08984-0.24316-0.25293-0.24316-0.42871v-7.34961c0-0.17578,0.0918-0.33887,0.24316-0.42871     c0.15137-0.0918,0.33887-0.09473,0.49219-0.0127l6.87012,3.66992c0.16309,0.08691,0.26465,0.25684,0.26465,0.44141     S24.93359,22.06079,24.77148,22.14771z"/>
   </g>
   <path d="M29.12,43.26501c0,0.27997-0.21997,0.5-0.5,0.5h-8.44c-0.27002,0-0.5-0.22003-0.5-0.5c0-0.27002,0.22998-0.5,0.5-0.5h8.44    C28.90002,42.76501,29.12,42.995,29.12,43.26501z"/>
   <path d="M29.12,34.92499c0,0.28003-0.21997,0.5-0.5,0.5h-8.44c-0.27002,0-0.5-0.21997-0.5-0.5c0-0.27997,0.22998-0.5,0.5-0.5h8.44    C28.90002,34.42499,29.12,34.64502,29.12,34.92499z"/>
   <path d="M17.12,32.88501v4.46997c0,0.28003-0.21997,0.5-0.5,0.5h-5.72998c-0.28003,0-0.5-0.21997-0.5-0.5v-4.46997    c0-0.27002,0.21997-0.5,0.5-0.5H16.62C16.90002,32.38501,17.12,32.61499,17.12,32.88501z"/>
   <path d="M17.12,40.51501v4.45996c0,0.28003-0.21997,0.5-0.5,0.5h-5.72998c-0.28003,0-0.5-0.21997-0.5-0.5v-4.45996    c0-0.28003,0.21997-0.5,0.5-0.5H16.62C16.90002,40.01501,17.12,40.23499,17.12,40.51501z"/>
  </g>
 </g>
</svg>