<?xml version="1.0" encoding="utf-8"?>
<svg width="32pt" height="32pt" viewBox="0 0 32 32" version="1.1" id="svg2" xmlns="http://www.w3.org/2000/svg">
 <polygon style="stroke: rgb(0, 0, 0); fill: rgb(255, 255, 255); fill-opacity: 0.56;" points="28.651 22.979"/>
 <g>
  <path fill="#1d4583" d="M 16.44 0 L 17.9 0 C 19.76 0.37 21.59 0.84 23.4 1.4 C 19.26 1.64 14.8 2.69 11.83 5.78 C 6.67 11.54 4.38 19.59 5.75 27.21 C 4.37 26.86 2.96 26.58 1.56 26.3 C 1.02 25.32 0.5 24.34 0 23.34 L 0 16.57 C 1.07 17.8 2 19.14 2.77 20.58 C 3.74 15.03 6.78 10.23 9.54 5.44 C 5.45 8.16 3.57 12.68 1.31 16.82 C 0.66 14.21 2.41 11.82 3.8 9.77 C 7.34 5.75 11.12 1.55 16.44 0 Z" id="path6"/>
  <path fill="#2b3632" d="M 17.9 0 L 23.47 0 C 27.08 2.16 31.22 5.36 31.07 10.02 C 31.77 16.16 28.12 21.79 23.81 25.81 C 21.42 28.41 18.56 30.52 15.35 32 L 7.35 32 C 5.08 30.49 2.81 28.79 1.56 26.3 C 2.96 26.58 4.37 26.86 5.75 27.21 C 8.36 29.05 11.38 31.42 14.76 30.04 C 21.84 27.34 26.51 20.12 27.64 12.83 C 28.06 8.76 28.17 2.94 23.4 1.4 C 21.59 0.84 19.76 0.37 17.9 0 Z" id="path8"/>
  <path fill="#ffffff" d="M 23.4 1.4 C 28.17 2.94 28.06 8.76 27.64 12.83 C 26.51 20.12 21.84 27.34 14.76 30.04 C 11.38 31.42 8.36 29.05 5.75 27.21 C 4.38 19.59 6.67 11.54 11.83 5.78 C 14.8 2.69 19.26 1.64 23.4 1.4 Z" id="path12"/>
  <path fill="#1d4583" d="M 10.74 12.78 C 14.25 8.68 21.21 7.73 24.74 12.31 C 24.24 16.17 22.71 19.75 21.22 23.31 C 19.73 23.39 18.24 23.46 16.75 23.55 C 17.73 22.21 18.73 20.87 19.72 19.54 C 18.24 19.06 16.76 18.58 15.29 18.06 C 16.07 16.72 16.89 15.39 17.71 14.06 C 17.58 13.61 17.31 12.71 17.17 12.25 C 15.47 12.54 13.76 12.79 12.05 13.07 C 13.39 15.84 14.82 18.58 15.71 21.54 C 14.85 21.54 13.12 21.54 12.26 21.55 C 13.58 23.8 15.53 25.41 18.02 26.25 C 12.79 26.68 9.49 21.98 8.74 17.32 C 9.25 17.32 10.26 17.31 10.77 17.31 C 10.14 15.87 9.22 14.05 10.74 12.78 Z" id="path14"/>
 </g>
 <path d="M 29.259 30.742 C 29.187 30.742 29.15 30.697 29.15 30.607 L 29.15 30.568 C 29.383 30.318 29.499 30.078 29.499 29.85 C 29.499 29.412 29.039 29.191 28.12 29.191 C 27.205 29.191 25.864 29.308 24.096 29.541 C 22.323 29.774 21.131 29.985 20.522 30.172 C 20.339 30.217 20.247 30.1 20.247 29.823 C 20.247 29.737 20.267 29.659 20.305 29.588 C 20.361 29.324 20.998 29.01 22.218 28.649 C 23.853 28.025 25.39 27.197 26.831 26.157 C 28.267 25.119 28.984 24.136 28.984 23.205 C 28.984 22.976 28.868 22.789 28.633 22.641 C 28.402 22.498 27.989 22.425 27.396 22.425 C 26.803 22.425 25.981 22.58 24.927 22.889 C 23.873 23.202 23.165 23.459 22.799 23.654 C 22.428 23.851 22.208 23.949 22.134 23.949 C 22.013 23.949 21.968 23.883 22.001 23.748 C 22.001 23.431 22.153 23.207 22.459 23.078 C 22.552 23.046 22.752 22.936 23.058 22.748 C 23.882 22.244 24.346 21.991 24.445 21.991 C 24.545 21.991 24.584 22.033 24.562 22.117 C 24.545 22.206 24.429 22.338 24.212 22.513 C 25.937 21.957 27.404 21.681 28.617 21.681 C 29.831 21.681 30.438 22.075 30.438 22.862 C 30.438 22.903 30.438 22.945 30.438 22.99 C 30.405 23.671 29.897 24.435 28.917 25.285 C 27.936 26.136 27.062 26.778 26.29 27.212 C 24.906 27.982 23.7 28.612 22.675 29.104 C 23.234 28.961 24.04 28.826 25.094 28.694 C 26.14 28.561 27.07 28.494 27.877 28.494 C 29.408 28.494 30.172 28.749 30.172 29.259 C 30.172 29.549 30.056 29.869 29.823 30.218 C 29.59 30.568 29.401 30.742 29.259 30.742 Z" style="white-space: pre; stroke-linecap: round; stroke-miterlimit: 1; stroke-linejoin: round; fill: rgb(255, 255, 255); fill-opacity: 0.96; stroke: rgb(29, 69, 131); fill-rule: evenodd; paint-order: stroke;"/>
</svg>