<?xml version="1.0" encoding="utf-8"?>
<svg version="1.1" style="shape-rendering:geometricPrecision;text-rendering:geometricPrecision;image-rendering:optimizeQuality;" viewBox="-6.01 0 435.323 386.974" x="0px" y="0px" fill-rule="evenodd" clip-rule="evenodd" xmlns="http://www.w3.org/2000/svg">
 <defs>
  <style type="text/css">
   
    .fil1 {fill:black}
    .fil0 {fill:black;fill-rule:nonzero}
   
  </style>
 </defs>
 <g>
  <path class="fil0" d="M39.56 30.42l56.16 0 0 -20.26c0,-5.61 4.55,-10.16 10.16,-10.16 5.61,0 10.16,4.55 10.16,10.16l0 20.26 50.55 0 0 -20.26c0,-5.61 4.55,-10.16 10.16,-10.16 5.61,0 10.16,4.55 10.16,10.16l0 20.26 50.55 0 0 -20.26c0,-5.61 4.55,-10.16 10.16,-10.16 5.61,0 10.16,4.55 10.16,10.16l0 20.26 50.55 0 0 -20.26c0,-5.61 4.55,-10.16 10.16,-10.16 5.61,0 10.16,4.55 10.16,10.16l0 20.26 56.16 0c21.71,0 39.56,17.85 39.56,39.56l0 271.78c0,21.71 -17.85,39.56 -39.56,39.56l-345.24 0c-21.71,0 -39.56,-17.85 -39.56,-39.56l0 -271.78c0,-21.71 17.85,-39.56 39.56,-39.56zm289.08 20.32l0 20.25c0,5.61 -4.55,10.16 -10.16,10.16 -5.61,0 -10.16,-4.55 -10.16,-10.16l0 -20.25 -50.55 0 0 20.25c0,5.61 -4.55,10.16 -10.16,10.16 -5.61,0 -10.16,-4.55 -10.16,-10.16l0 -20.25 -50.55 0 0 20.25c0,5.61 -4.55,10.16 -10.16,10.16 -5.61,0 -10.16,-4.55 -10.16,-10.16l0 -20.25 -50.55 0 0 20.25c0,5.61 -4.55,10.16 -10.16,10.16 -5.61,0 -10.16,-4.55 -10.16,-10.16l0 -20.25 -56.16 0c-10.62,0 -19.24,8.62 -19.24,19.24l0 45.08 383.72 0 0 -45.08c0,-10.62 -8.62,-19.24 -19.24,-19.24l-56.16 0zm75.4 84.64l-383.72 0 0 206.39c0,10.62 8.62,19.24 19.24,19.24l345.24 0c10.62,0 19.24,-8.62 19.24,-19.24l0 -206.39z"/>
  <polygon class="fil1" points="193.7,166.79 230.67,166.79 230.67,203.77 193.7,203.77 "/>
  <polygon class="fil1" points="259.11,166.79 296.09,166.79 296.09,203.77 259.11,203.77 "/>
  <polygon class="fil1" points="324.53,166.79 361.51,166.79 361.51,203.77 324.53,203.77 "/>
  <polygon class="fil1" points="62.86,229.69 99.84,229.69 99.84,266.67 62.86,266.67 "/>
  <polygon class="fil1" points="62.86,292.6 99.84,292.6 99.84,329.58 62.86,329.58 "/>
  <polygon class="fil1" points="128.28,229.69 165.26,229.69 165.26,266.67 128.28,266.67 "/>
  <polygon class="fil1" points="128.28,292.6 165.26,292.6 165.26,329.58 128.28,329.58 "/>
  <polygon class="fil1" points="193.7,229.69 230.67,229.69 230.67,266.67 193.7,266.67 "/>
  <polygon class="fil1" points="193.7,292.6 230.67,292.6 230.67,329.58 193.7,329.58 "/>
  <polygon class="fil1" points="259.11,229.69 296.09,229.69 296.09,266.67 259.11,266.67 "/>
  <polygon class="fil1" points="259.11,292.6 296.09,292.6 296.09,329.58 259.11,329.58 "/>
  <polygon class="fil1" points="324.53,229.69 361.51,229.69 361.51,266.67 324.53,266.67 "/>
 </g>
</svg>