<?xml version="1.0" encoding="utf-8"?>
<svg version="1.1" x="0px" y="0px" viewBox="7.558 8.022 84.783 85.826" xmlns="http://www.w3.org/2000/svg">
 <g transform="translate(0,-952.36218)">
  <path style="text-indent: 0px; text-transform: none; direction: ltr; baseline-shift: baseline; color: rgb(0, 0, 0); stroke: rgb(54, 67, 127); fill: rgb(228, 226, 250);" d="m 50,961.36216 c -22.61989,0 -40.9999995,18.38015 -40.9999995,41.00004 0,22.6198 18.3801095,41 40.9999995,41 22.61989,0 41,-18.3802 41,-41 0,-22.61989 -18.38011,-41.00004 -41,-41.00004 z m 0,4 c 20.45809,0 37,16.54193 37,37.00004 0,20.4581 -16.54191,37 -37,37 -20.45809,0 -37,-16.5419 -37,-37 0,-20.45811 16.54191,-37.00004 37,-37.00004 z m -7.90625,16 c -1.09326,0.0247 -2.16505,0.34054 -3.0625,0.90625 -1.7949,1.13142 -2.98117,3.20454 -3.03125,5.59375 a 2.0002,2.0002 0 0 0 0,0.0625 l 0,28.84374 a 2.0002,2.0002 0 0 0 0,0.031 c 0.0502,2.3891 1.23873,4.4875 3.03125,5.625 1.792521,1.1376 4.24745,1.2521 6.3125,0.062 a 2.0002,2.0002 0 0 0 0.0312,-0.031 l 23.5313,-14.4687 C 70.77181,1006.8359 72,1004.7105 72,1002.3309 c 0,-2.37959 -1.228089,-4.47379 -3.09375,-5.62499 L 45.375,982.23716 a 2.0002,2.0002 0 0 0 -0.0312,-0.0312 c -1.031,-0.59389 -2.15674,-0.86842 -3.25,-0.84375 z m 0.0625,3.96875 c 0.33741,-0.009 0.72247,0.0933 1.125,0.3125 0.0237,0.0129 0.0385,0.0176 0.0625,0.0312 l 23.46875,14.43759 c 0.695661,0.4292 1.1875,1.2049 1.1875,2.2187 0,1.0138 -0.491739,1.8206 -1.1875,2.25 l -23.46875,14.4375 c -0.0239,0.014 -0.0389,0.018 -0.0625,0.031 -0.825719,0.4496 -1.51657,0.3862 -2.125,0 -0.619459,-0.3931 -1.12239,-1.1515 -1.15625,-2.2812 l 0,-0.031 0,-28.78129 0,-0.0312 c 0.0339,-1.12924 0.53919,-1.89228 1.15625,-2.28125 0.31174,-0.1965 0.64272,-0.30248 1,-0.3125 z" fill-opacity="1" marker="none" visibility="visible" display="inline" overflow="visible"/>
 </g>
</svg>