<?xml version="1.0" encoding="utf-8"?>
<svg version="1.1" x="0px" y="0px" viewBox="0 2.66 100 95.958" enable-background="new 0 0 100 100" xmlns="http://www.w3.org/2000/svg">
 <path d="M97.1,68.5c0,6.6-2.6,12.6-7,17.4c0.8,2.2,2.3,4.7,5,6.4c0.7,0.4,0.5,1.5-0.3,1.6c-2.8,0.4-7.6,0.5-12-2.2  c-4.9,2.8-10.8,4.4-17.1,4.4c-14.2,0-26.1-8.2-30.1-19.5c1.5,0.1,2.9,0.2,4.4,0.2c21.2,0,39-13.4,43.4-31.2  C91.7,50.6,97.1,59,97.1,68.5z M28.6,41.6l10.4,10.5l5.1-5.1l-6.3-6.4l15.3,0l3.3,0l0-7.2l-3.3,0l-15.3,0l1.8-1.8l4.6-4.6l-5.1-5.1  l-4.6,4.6L29.2,32l0,0l-3.8,3.8l-1.3,1.3l0,0l0,0L28.6,41.6z M9.9,56.5c-4.6-5.6-7-12.4-7-19.4c0-18.3,16.8-33.2,37.4-33.2  c20.6,0,37.4,14.9,37.4,33.2c0,18.3-16.8,33.2-37.4,33.2c-6.5,0-12.9-1.5-18.6-4.4c-3,1.4-6.3,2.2-9.9,2.2c-1.2,0-2.4-0.1-3.6-0.3  c-1.7-0.2-3.1-1.5-3.5-3.2c-0.4-1.7,0.3-3.4,1.8-4.4C7.9,59.3,9.1,58.1,9.9,56.5z M16,53.8l1.3,1.4l-0.7,1.8  c-0.6,1.6-1.4,3.1-2.3,4.4c2.1-0.3,4-0.9,5.7-2l1.6-1l1.6,0.9c5.1,2.9,10.9,4.4,17,4.4c17.1,0,31-12,31-26.8  c0-14.8-13.9-26.8-31-26.8c-17.1,0-31,12-31,26.8C9.3,43.2,11.6,49,16,53.8z"/>
</svg>