<?xml version="1.0" encoding="utf-8"?>
<svg data-name="Layer 1" viewBox="4.743 8.894 86.515 78.736" x="0px" y="0px" xmlns="http://www.w3.org/2000/svg">
 <title>icon travel</title>
 <path d="M89.88,64.16A65.6,65.6,0,0,0,70.32,55l1.18-4.18,6.17,1.31.21,0a1,1,0,0,0,1-1,8.3,8.3,0,0,0-15.76-3.34,1,1,0,0,0,.69,1.42l5.73,1.22L68.39,54.5a76.21,76.21,0,0,0-19-2.35h-.3a50,50,0,0,0-9.32,1c.44-4.57,1.09-19-6.93-25.51,2.46,0,5.83.49,7.11,3.11a1,1,0,1,0,1.8-.88c-1.78-3.63-6.11-4.26-9.08-4.23,3.71-2.17,9.33-1.21,9.4-1.2a1,1,0,0,0,.35-2c-.35-.06-7.78-1.33-12.09,2.4.12-2.58,3.25-5.76,4.7-7a1,1,0,0,0-1.27-1.55c-.27.22-5.87,4.87-5.42,9.18-5.87-.76-10.5,4.18-10.72,4.41a1,1,0,1,0,1.47,1.35s3.31-3.53,7.48-3.83c-2.5,1.54-5.84,4.18-6.5,7.57a1,1,0,0,0,.79,1.17l.19,0a1,1,0,0,0,1-.81c.49-2.54,3.11-4.68,5.26-6a14,14,0,0,0-.63,8.26,1,1,0,0,0,1,.78l.22,0a1,1,0,0,0,.76-1.19,12.23,12.23,0,0,1,1.51-9c9.14,5.34,7.94,21.85,7.57,25.39q-1.09.24-2.19.52a5.23,5.23,0,0,0-9.4-2.74A5.15,5.15,0,0,0,24,50.89a5.26,5.26,0,0,0-5.22,4.65,5.23,5.23,0,0,0-3.28,4.86c0,.09,0,.17,0,.26l-2.59.95L6.66,63.88a2.28,2.28,0,0,0,.78,4.43H88.56a2.28,2.28,0,0,0,1.32-4.16ZM72.07,45.3a6.32,6.32,0,0,1,4.63,4.59L65.61,47.54A6.34,6.34,0,0,1,72.07,45.3Zm1.28,12.77-3.73,3.7L61,59.68l3.42-4A69.77,69.77,0,0,1,73.35,58.07ZM20,57.25a1,1,0,0,0,.76-1,.39.39,0,0,0,0-.11h0A3.26,3.26,0,0,1,24,52.89a3.23,3.23,0,0,1,1.93.65,1,1,0,0,0,1.5-.38,3.22,3.22,0,0,1,2.94-1.88,3.26,3.26,0,0,1,3.26,3.26s0,.06,0,.09c-5.05,1.38-10.4,3.24-16.07,5.3A3.24,3.24,0,0,1,20,57.25Zm68.87,8.86a.26.26,0,0,1-.28.2H7.43a.28.28,0,0,1-.1-.55l6.25-2.27c7.59-2.78,14.61-5.35,21.09-7.08l.06,0a57.27,57.27,0,0,1,14.4-2.24h.29a75.81,75.81,0,0,1,12.71,1.06L58.4,59.63a1,1,0,0,0,.53,1.62l10.75,2.6a1,1,0,0,0,.24,0,1,1,0,0,0,.7-.29l4.8-4.76a61.68,61.68,0,0,1,13.3,7A.26.26,0,0,1,88.84,66.12Z"/>
 <path d="M21.22,73.55a1,1,0,0,0-1-1H8.76a1,1,0,0,0,0,2H20.22A1,1,0,0,0,21.22,73.55Z"/>
 <path d="M31.3,77.85H20.22a1,1,0,0,0,0,2H31.3a1,1,0,0,0,0-2Z"/>
 <path d="M38.21,72.55H30.34a1,1,0,1,0,0,2h7.87a1,1,0,0,0,0-2Z"/>
 <path d="M48,77.85H41.74a1,1,0,1,0,0,2H48a1,1,0,0,0,0-2Z"/>
 <path d="M63.3,73.55a1,1,0,0,0-1-1H53.14a1,1,0,1,0,0,2H62.3A1,1,0,0,0,63.3,73.55Z"/>
 <path d="M68.72,77.85H62.3a1,1,0,1,0,0,2h6.42a1,1,0,0,0,0-2Z"/>
 <path d="M77.72,73.51H71.46a1,1,0,0,0,0,2h6.26a1,1,0,1,0,0-2Z"/>
 <path d="M85.11,77.85H80a1,1,0,1,0,0,2h5.14a1,1,0,0,0,0-2Z"/>
</svg>