<?xml version="1.0" encoding="utf-8"?>
<svg version="1.0" width="200.000000pt" height="200.000000pt" viewBox="35.09 63.855 99.213 111.797" preserveAspectRatio="xMidYMid meet" xmlns="http://www.w3.org/2000/svg">
 <g transform="translate(0.000000,200.000000) scale(0.100000,-0.100000)" fill="#000000" stroke="none">
  <path d="M633 1325 c-24 -10 -34 -23 -42 -52 -15 -53 -15 -57 20 -107 24 -37 29 -52 24 -80 -5 -26 0 -48 24 -97 17 -35 31 -69 31 -76 0 -7 7 -13 15 -13 24 0 18 42 -15 104 -41 77 -28 114 34 90 12 -4 13 -10 4 -29 -13 -29 -6 -61 26 -107 l24 -36 -51 -23 c-62 -29 -103 -62 -122 -100 -22 -42 -18 -65 16 -90 27 -19 36 -21 62 -11 29 11 32 9 108 -67 67 -67 102 -121 87 -136 -11 -11 -68 51 -91 97 -28 60 -61 98 -82 98 -21 0 -18 -23 4 -37 10 -7 31 -36 45 -66 23 -50 90 -127 109 -127 5 0 -6 -12 -23 -26 -38 -33 -37 -64 4 -79 41 -14 153 46 180 97 l20 36 -31 35 c-20 23 -42 68 -59 122 -16 52 -38 98 -55 116 -29 31 -69 39 -69 14 0 -8 6 -15 14 -15 25 0 53 -46 87 -146 20 -60 41 -102 56 -114 22 -17 23 -18 4 -42 -25 -32 -120 -83 -132 -71 -6 6 3 20 21 38 25 24 30 37 30 74 0 56 -12 73 -113 174 -75 74 -78 79 -64 100 8 12 27 26 43 30 16 5 62 21 102 37 39 15 72 23 72 18 0 -14 83 -5 88 10 2 8 -10 12 -41 12 -51 0 -50 -14 -12 110 10 30 23 75 30 100 8 25 14 37 14 27 1 -10 12 -43 25 -75 30 -72 53 -254 38 -294 -10 -25 -16 -27 -74 -30 -47 -2 -63 -7 -63 -17 0 -12 14 -14 63 -12 80 3 158 -21 166 -52 3 -12 3 -45 -1 -74 -5 -43 -2 -56 16 -79 11 -15 21 -37 21 -50 0 -34 20 -73 42 -79 10 -4 18 -15 18 -26 0 -10 7 -19 15 -19 10 0 15 10 15 30 0 17 -4 30 -10 30 -22 0 -50 41 -50 73 0 18 -8 44 -17 57 -13 18 -18 44 -18 91 0 75 -10 93 -61 109 -35 12 -35 12 -28 56 9 65 -14 228 -43 304 -48 124 -56 139 -85 167 -26 25 -39 29 -112 33 -80 6 -85 7 -118 43 -39 41 -77 47 -135 22z m117 -50 c19 -19 29 -35 23 -35 -6 0 -16 -27 -22 -60 -11 -56 -14 -59 -32 -50 -11 6 -29 8 -39 5 -13 -4 -20 -2 -20 7 0 7 -11 30 -24 49 -30 44 -24 87 15 106 39 20 63 15 99 -22z m197 -50 c28 -6 78 -76 62 -86 -17 -10 -54 -118 -74 -212 -4 -23 -18 -34 -68 -58 -34 -16 -70 -29 -80 -29 -36 0 -73 -29 -96 -75 -22 -43 -24 -45 -44 -32 -11 7 -23 19 -24 24 -8 23 63 86 132 118 103 47 133 76 134 128 1 23 2 56 2 72 1 57 -8 100 -22 100 -10 0 -13 -12 -12 -40 2 -22 3 -47 3 -55 0 -15 -7 -112 -9 -119 -1 -2 -12 4 -25 13 -14 9 -31 13 -39 10 -23 -8 -42 48 -25 75 9 16 10 25 2 39 -8 13 -8 20 1 29 7 7 16 34 20 60 l6 48 67 -3 c37 -1 77 -5 89 -7z" style="stroke: rgb(0, 0, 0); stroke-width: 20px;"/>
  <path d="M545 740 c-13 -40 16 -85 115 -185 55 -55 103 -111 107 -123 3 -13 0 -42 -7 -63 -10 -28 -10 -43 -3 -50 14 -14 32 -4 32 19 0 9 3 32 7 49 11 57 -5 85 -106 188 -107 109 -122 131 -113 163 7 29 -23 30 -32 2z"/>
  <path d="M 759.051 277.627 C 762.051 267.627 825.051 264.627 1031.051 264.627 C 1237.051 264.627 1300.051 267.627 1304.051 277.627 C 1307.051 286.627 1248.051 289.627 1031.051 289.627 C 814.051 289.627 755.051 286.627 759.051 277.627 Z"/>
 </g>
</svg>