<?xml version="1.0" encoding="utf-8"?>
<svg version="1.1" x="0px" y="0px" viewBox="9.456 1.734 30.788 46.833" enable-background="new 0 0 50 50" xmlns="http://www.w3.org/2000/svg">
 <g>
  <polygon fill="#000000" points="595.758,1224.669 593.379,1252.229 598.776,1252.229 596.713,1224.669  "/>
  <g>
   <circle fill="#000000" cx="596.249" cy="1218.294" r="4.404"/>
   <g>
    <g>
     <path fill="#000000" d="M590.851,1226.847c-2.808-1.835-4.484-4.928-4.484-8.274c0-3.425,1.738-6.558,4.649-8.38l-1.061-1.695      c-3.5,2.19-5.589,5.956-5.589,10.075c0,4.023,2.015,7.743,5.39,9.949L590.851,1226.847z"/>
    </g>
    <g>
     <path fill="#000000" d="M601.141,1209.987c3.076,1.757,4.986,5.046,4.986,8.585c0,3.477-1.859,6.737-4.854,8.51l1.019,1.721      c3.6-2.131,5.836-6.051,5.836-10.23c0-4.255-2.297-8.21-5.994-10.322L601.141,1209.987z"/>
    </g>
    <g>
     <path fill="#000000" d="M588.683,1231.004c-4.375-2.668-6.986-7.315-6.986-12.432c0-4.604,2.109-8.838,5.788-11.617      l-1.205-1.596c-4.184,3.16-6.583,7.977-6.583,13.213c0,5.819,2.97,11.105,7.944,14.14L588.683,1231.004z"/>
    </g>
    <g>
     <path fill="#000000" d="M604.768,1206.774c3.777,2.734,6.032,7.146,6.032,11.798c0,5.12-2.739,9.922-7.148,12.531l1.019,1.721      c5.015-2.967,8.13-8.429,8.13-14.252c0-5.292-2.564-10.309-6.859-13.418L604.768,1206.774z"/>
    </g>
   </g>
  </g>
 </g>
 <polygon style="fill: rgb(255, 255, 255);" points="29.848 8.8 38.338 11.009 38.077 7.606 33.614 4.553 29.774 3.118 27.216 3.82 27.449 6.488 29.764 9.162"/>
 <polygon style="fill: rgb(255, 255, 255);" points="31.603 10.912 36.008 12.381 28.432 30.276 21.239 25.592 21.239 25.592 31.34 10.696"/>
 <path d="M 38.132 7.263 C 36.433 5.552 34.245 4.322 31.566 3.093 C 28.646 2.107 26.207 2.096 24.983 3.31 C 24.493 3.796 24.245 4.527 24.243 5.502 C 24.487 5.746 24.725 6.479 25.208 7.942 L 18.094 18.887 C 15.413 18.633 13.217 19.354 11.502 21.055 C 9.298 23.24 9.776 26.167 13.174 29.594 C 14.388 30.819 15.848 31.797 17.552 33.023 L 10.665 47.626 L 19.496 34.007 C 21.443 34.99 23.634 35.734 25.586 35.738 C 28.508 36.239 30.461 35.757 31.686 34.544 C 32.909 33.331 33.401 31.868 32.678 30.162 C 32.684 28.697 31.713 27.229 30.744 25.762 L 36.156 13.108 C 37.865 12.87 38.597 12.63 39.088 12.142 C 40.312 10.931 40.075 9.222 38.132 7.263 Z M 29.771 26.246 C 29.771 26.246 29.771 26.246 29.523 26.491 C 29.035 26.975 27.814 27.216 26.109 26.966 C 25.378 26.718 24.648 26.471 23.917 26.226 L 32.261 12.116 L 35.185 13.105 L 29.771 26.246 Z M 37.597 9.326 C 37.107 10.23 34.663 9.848 32.134 8.474 C 29.609 7.101 27.96 5.253 28.45 4.348 C 28.944 3.444 31.389 3.827 33.917 5.203 C 36.442 6.576 38.089 8.422 37.597 9.326 Z" style="fill: rgb(135, 29, 29);"/>
 <path d="M 24.743 4.16 C 16.231 4.16 9.306 11.133 9.306 19.702 C 9.306 28.273 16.231 35.246 24.743 35.246 C 33.257 35.246 40.182 28.273 40.182 19.702 C 40.182 11.133 33.257 4.16 24.743 4.16 Z M 14.422 19.702 C 14.422 13.972 19.052 9.31 24.743 9.31 C 26.598 9.31 28.412 9.812 30.003 10.765 L 15.868 24.999 C 14.921 23.395 14.422 21.568 14.422 19.702 Z M 24.743 30.096 C 22.892 30.096 21.077 29.593 19.485 28.64 L 33.621 14.405 C 34.568 16.009 35.069 17.838 35.069 19.702 C 35.069 25.434 30.437 30.096 24.743 30.096 Z" style="stroke: rgb(255, 255, 255); stroke-width: 3px; stroke-opacity: 0.47;"/>
</svg>